# xmcd
#
# Track frame offsets: 
#        150
#        11923
#        26788
#        44241
#        60851
#
# Disc length: 1013 seconds
#
# Revision: 0
# Processed by: cddbd v1.5.2PL0 Copyright (c) Steve Scherf et al.
# Submitted via: ExactAudioCopy v1.0b6
#
DISCID=3f03f305
DTITLE=Town Meeting - New Hampshire
DYEAR=2015
DGENRE=Alt. Rock
TTITLE0=New Hampshire
TTITLE1=Anyone But That One
TTITLE2=Ruin Your Heart
TTITLE3=While Lizards Eat Lions
TTITLE4=The Rest Of My Life
EXTD=
EXTT0=
EXTT1=
EXTT2=
EXTT3=
EXTT4=
PLAYORDER=
